<?xml version="1.0" encoding="UTF-8" standalone="no"?>
<!-- Created with Inkscape (http://www.inkscape.org/) -->

<svg
   width="164.567mm"
   height="164.567mm"
   viewBox="0 0 164.567 164.567"
   version="1.1"
   id="svg5"
   xml:space="preserve"
   inkscape:version="1.2.2 (732a01da63, 2022-12-09)"
   sodipodi:docname="MAIN.svg"
   xmlns:inkscape="http://www.inkscape.org/namespaces/inkscape"
   xmlns:sodipodi="http://sodipodi.sourceforge.net/DTD/sodipodi-0.dtd"
   xmlns="http://www.w3.org/2000/svg"
   xmlns:svg="http://www.w3.org/2000/svg"><sodipodi:namedview
     id="namedview7"
     pagecolor="#ffffff"
     bordercolor="#000000"
     borderopacity="0.25"
     inkscape:showpageshadow="2"
     inkscape:pageopacity="0.0"
     inkscape:pagecheckerboard="0"
     inkscape:deskcolor="#d1d1d1"
     inkscape:document-units="mm"
     showgrid="false"
     inkscape:zoom="0.48996914"
     inkscape:cx="475.54016"
     inkscape:cy="418.3937"
     inkscape:window-width="1366"
     inkscape:window-height="705"
     inkscape:window-x="1432"
     inkscape:window-y="165"
     inkscape:window-maximized="1"
     inkscape:current-layer="layer1" /><defs
     id="defs2" /><g
     inkscape:label="Capa 1"
     inkscape:groupmode="layer"
     id="layer1"
     style="display:inline"><g
       id="g4598"
       style="fill:#ffffff;fill-opacity:1;stroke:#1b8882;stroke-opacity:1"
       transform="translate(-13.468062,-13.48317)"><circle
         style="fill:#ffffff;fill-opacity:1;stroke:#1b8882;stroke-width:4.987;stroke-linecap:round;stroke-dasharray:none;stroke-opacity:1"
         id="path910"
         cx="95.717377"
         cy="95.76667"
         r="74.790001" /><path
         style="fill:#1b8882;fill-opacity:1;stroke:#1b8882;stroke-width:0.226274;stroke-opacity:1"
         d="m 97.307662,163.96529 c 0.5503,-0.21421 1.85029,-0.6014 2.888878,-0.86043 1.48925,-0.37147 2.27464,-0.41015 3.7162,-0.18302 2.5553,0.40258 4.78462,0.23191 6.36127,-0.48705 1.71284,-0.78105 3.17317,-2.33855 5.15756,-5.50072 1.15998,-1.8485 1.76753,-2.6301 2.70046,-3.47438 2.42959,-2.1986 3.90578,-2.86073 8.09634,-3.63161 5.63999,-1.0375 8.82543,-3.24184 11.47168,-7.93851 1.69841,-3.01437 3.2715,-4.52671 6.03763,-5.80434 1.73529,-0.80151 6.75576,-1.37294 10.2994,-1.17228 l 2.69495,0.15265 0.71396,-0.97863 c 1.45191,-1.99029 5.66255,-9.86925 5.5829,-10.44652 -0.009,-0.0686 -0.2452,-0.37026 -0.52384,-0.6702 -0.45988,-0.49519 -0.66138,-0.52481 -2.18649,-0.32166 -0.92392,0.12305 -1.68702,0.17185 -1.69578,0.10845 -0.0489,-0.35438 2.11548,-3.10269 2.84985,-3.61864 0.86078,-0.60483 2.19396,-0.67229 2.9209,-0.14781 0.20099,0.14505 0.38122,0.13129 0.43199,-0.0332 3.81874,-12.37176 3.97922,-23.509792 0.52345,-36.325572 l -0.25008,-0.92743 3.28348,2.36576 3.28348,2.36576 0.61067,4.23845 c 4.77993,33.175902 -16.05001,64.521102 -49.93782,75.147112 -4.55998,1.42983 -8.49237,2.26548 -13.91264,2.95648 l -5.11345,0.65189 -3.502608,-2.53762 -3.50266,-2.53763 z"
         id="path1124" /><path
         id="path1151"
         style="fill:#1b8882;fill-opacity:1;stroke:#1b8882;stroke-width:0.141487;stroke-opacity:1"
         d="m 112.77219,169.33691 c 0.82202,-0.73208 1.67648,-1.0943 2.74225,-1.16252 0.71608,-0.0458 1.05106,5.3e-4 1.42622,0.19767 0.44632,0.23445 1.12996,1.04773 1.12996,1.34422 0,0.0666 -1.31561,0.11841 -2.92355,0.11516 l -2.92354,-0.006 0.54866,-0.48863 z m 17.32177,-9.97834 c 1.61029,-2.46645 3.05224,-5.15191 3.05224,-5.68446 0,-0.49711 -0.41743,-1.88156 -0.56731,-1.88156 -0.056,0 -0.30616,0.59142 -0.55587,1.31428 -1.18301,3.42442 -2.23774,4.64202 -4.49717,5.19159 -0.5498,0.13374 -1.00009,0.294 -1.00065,0.35614 -0.002,0.20796 1.40334,2.21463 1.65382,2.36173 0.5446,0.31985 0.7268,0.16211 1.91494,-1.65772 z m -53.156803,5.39922 c -0.215612,-0.78296 -0.180261,-2.02159 0.07962,-2.79088 0.333571,-0.98724 1.520769,-2.21914 2.620605,-2.7193 0.730647,-0.33226 1.081793,-0.40314 2.012252,-0.40614 0.945791,-0.003 1.25182,0.0583 1.902055,0.38163 0.426202,0.21189 0.996817,0.5813 1.268039,0.8209 l 0.493125,0.43564 -0.56357,-0.11653 c -0.309962,-0.0641 -1.324394,-0.11597 -2.254289,-0.11531 -1.567071,9.7e-4 -1.744181,0.0296 -2.421595,0.38863 -1.385865,0.7346 -2.294089,2.04658 -2.622257,3.78798 -0.08974,0.47642 -0.209149,0.86619 -0.265264,0.86619 -0.05613,0 -0.16806,-0.23976 -0.248768,-0.53281 z m 14.128474,-0.27835 c -0.05642,-0.2181 -0.100316,-0.84758 -0.09754,-1.39884 0.0067,-1.29038 0.490958,-2.40692 1.487241,-3.42773 1.042718,-1.06841 2.124214,-1.53436 3.56547,-1.53615 0.944,-9.6e-4 1.25434,0.0616 1.90986,0.38625 0.43048,0.21321 0.93682,0.55308 1.12519,0.75529 l 0.34248,0.36764 -0.77295,-0.1159 c -0.42513,-0.0637 -1.28615,-0.11231 -1.91339,-0.10789 -2.117572,0.0149 -3.31276,0.93962 -4.579434,3.5431 -0.379939,0.78092 -0.690798,1.49645 -0.690798,1.59007 0,0.36203 -0.278716,0.32066 -0.376131,-0.0558 z m 13.683529,-1.67308 c -0.24195,-1.62714 0.41236,-3.2859 1.87278,-4.7477 1.24036,-1.24153 2.04579,-1.63576 3.3473,-1.63839 1.18589,-0.002 1.89702,0.22471 2.57029,0.82084 0.65413,0.5792 1.01555,1.40283 1.01939,2.32312 l 0.003,0.73847 -0.92341,-0.43576 c -0.6011,-0.28367 -1.23456,-0.46095 -1.81495,-0.50793 -1.3952,-0.11294 -2.11381,0.29252 -4.23415,2.38905 l -1.74165,1.72208 -0.0987,-0.66378 z m 12.91192,-1.72179 c -0.60758,-2.20677 0.83098,-5.48909 2.90454,-6.6272 1.82547,-1.00195 3.34861,-0.42557 3.90958,1.47942 0.18621,0.63232 0.2941,1.54282 0.18217,1.53747 -0.0194,-9.7e-4 -0.38393,-0.0961 -0.81013,-0.21145 -2.37271,-0.64225 -3.81004,0.24289 -5.50264,3.38863 l -0.53104,0.98693 z m 7.76531,-46.79086 c -0.2595,-1.13371 -0.21694,-2.27697 0.10455,-2.80868 0.48347,-0.7996 0.96787,-0.88133 2.36107,-0.39832 0.80028,0.27745 0.68354,0.55068 -0.27991,0.65508 -1.21993,0.13219 -1.50169,0.48735 -1.83591,2.31411 l -0.17957,0.98148 z m 15.08575,29.06878 c 0.86105,-0.76041 1.75608,-1.13665 2.87246,-1.20751 0.75008,-0.0476 1.10097,5.6e-4 1.49394,0.20532 0.46751,0.24353 1.18361,1.08828 1.18361,1.39624 0,0.0692 -1.37807,0.123 -3.06236,0.11962 l -3.06236,-0.006 0.57471,-0.50754 z M 158.6564,132.998 c 1.68675,-2.56189 3.19717,-5.35128 3.19717,-5.90444 0,-0.51635 -0.43725,-1.95437 -0.59425,-1.95437 -0.0587,0 -0.32069,0.61431 -0.58226,1.36514 -1.23918,3.55694 -2.344,4.82166 -4.71071,5.3925 -0.57591,0.13891 -1.04758,0.30537 -1.04816,0.36992 -0.002,0.21601 1.46997,2.30033 1.73234,2.45312 0.57046,0.33223 0.76132,0.16839 2.00587,-1.72187 z m 5.08618,-13.82277 c 0.44513,-0.23254 1.09581,-0.89182 1.32394,-1.34142 0.38855,-0.7658 0.94309,-5.2249 0.76608,-6.16015 -0.15235,-0.80495 -0.71179,-2.17832 -0.88734,-2.17832 -0.0653,0 -0.16007,0.38188 -0.21054,0.84861 -0.19503,1.80378 -0.41556,2.94176 -0.70006,3.61241 -0.48607,1.14583 -1.52153,1.93104 -3.18746,2.41715 -0.23581,0.0688 -0.14683,0.41235 0.39612,1.52935 0.61924,1.27393 1.56989,1.7579 2.49926,1.27237 z m -18.10941,15.61557 c -0.63643,-2.29217 0.87044,-5.70151 3.04246,-6.88367 1.91214,-1.04072 3.50761,-0.44204 4.09522,1.53668 0.19505,0.65679 0.30806,1.60252 0.19082,1.59696 -0.0203,-0.001 -0.40217,-0.0998 -0.8486,-0.21963 -2.48538,-0.6671 -3.99096,0.25229 -5.76393,3.51977 l -0.55625,1.02512 z m -19.92783,-11.47889 c -0.12236,-0.36324 -0.16857,-0.99421 -0.12629,-1.72456 0.21663,-3.74213 3.93602,-6.24711 7.00135,-4.71536 0.87069,0.43509 1.96536,1.37091 1.30612,1.11659 -0.65246,-0.25172 -2.95135,-0.27107 -3.77218,-0.0318 -2.20783,0.64366 -3.17342,1.92387 -4.08153,5.41137 l -0.1345,0.51654 z m 14.10296,-2.61868 c -0.4248,-2.12401 0.40742,-4.26722 2.17604,-5.60395 1.24457,-0.94065 2.45227,-1.1099 3.71706,-0.52095 1.32081,0.61504 2.06676,1.79085 2.33126,3.67463 0.0857,0.61007 0.13166,0.61386 -0.8884,-0.0732 -2.42496,-1.63331 -4.73517,-0.86554 -6.58204,2.18745 -0.26246,0.43386 -0.51871,0.79072 -0.56944,0.79302 -0.0507,0.002 -0.13375,-0.20335 -0.18448,-0.45701 z m 11.19148,-2.25133 c -0.0565,-0.30147 -0.0749,-1.1315 -0.0408,-1.8445 0.0494,-1.03324 0.14473,-1.46551 0.46966,-2.12964 0.51303,-1.0486 1.61859,-2.03658 2.68428,-2.39882 0.74876,-0.25452 0.8271,-0.25605 1.31042,-0.0256 0.49301,0.23509 1.66164,1.54962 2.0645,2.32222 0.10581,0.20292 0.23547,0.6503 0.28813,0.99418 l 0.0957,0.62521 -0.92382,-0.50728 c -2.26619,-1.24441 -3.60449,-0.66669 -5.1552,2.22541 l -0.69003,1.28692 z m -7.05914,-13.68767 c -0.19177,-0.95883 -0.0954,-2.4709 0.20934,-3.28546 0.34177,-0.91346 1.24572,-1.930688 1.99323,-2.243018 1.06875,-0.44656 2.48109,-0.14391 3.26866,0.70042 l 0.32426,0.347628 -1.13597,0.0175 c -1.89684,0.0292 -2.84942,0.61506 -3.57926,2.20135 -0.22598,0.49116 -0.49591,1.30471 -0.59985,1.8079 -0.10392,0.50319 -0.23378,0.91489 -0.28857,0.91489 -0.0548,0 -0.14111,-0.20754 -0.19184,-0.4612 z m 9.70887,-3.6157 c -0.14156,-0.75457 0.0225,-2.419668 0.30514,-3.095998 0.4165,-0.99681 1.29878,-1.6821 2.16562,-1.6821 1.11518,0 2.39132,1.29774 3.01568,3.06674 0.59651,1.690058 0.52869,1.770978 -0.70588,0.842228 -1.13133,-0.851078 -1.62545,-1.038758 -2.32837,-0.884368 -0.483,0.10608 -1.32203,0.876068 -1.89054,1.734958 -0.20147,0.30439 -0.38769,0.55344 -0.41381,0.55344 -0.0261,0 -0.0926,-0.24071 -0.14784,-0.5349 z m 0.11769,-14.949338 c -0.27182,-1.17758 -0.22724,-2.36508 0.10952,-2.91737 0.50642,-0.83055 1.01382,-0.91544 2.47318,-0.41374 0.83828,0.28819 0.71599,0.57199 -0.2932,0.68044 -1.27786,0.1373 -1.573,0.5062 -1.92309,2.40366 l -0.1881,1.01946 z" /></g><g
       id="g4592"
       transform="matrix(0.74486762,0,0,0.74386552,-124.13117,-14.065683)"
       style="display:inline"><path
         style="fill:#034b64;fill-opacity:1;stroke-width:0.264583"
         d="m 285.59203,81.142232 c -1.77463,-0.500626 -2.58649,-1.125109 -3.16606,-2.43532 -0.48089,-1.087128 -0.48764,-1.265717 -0.11532,-3.051371 0.23696,-1.136465 0.6637,-2.248334 1.0647,-2.774071 0.36808,-0.482577 0.66923,-0.939972 0.66923,-1.016437 0,-0.304551 -2.66142,1.222544 -3.86726,2.218994 -1.47995,1.222965 -1.68684,1.279655 -1.6948,0.464413 -0.0128,-1.312222 -1.48928,-3.574352 -2.96333,-4.540189 -0.71492,-0.468437 -2.32253,-1.004919 -2.32253,-0.775068 0,0.07585 0.41577,0.623639 0.92393,1.217308 2.32841,2.720218 2.60343,6.729426 0.60737,8.854133 -0.79318,0.844304 -3.15871,1.66099 -4.9544,1.710478 -2.47086,0.0681 -4.55343,-0.853506 -6.65526,-2.945169 -2.21029,-2.199603 -2.91343,-3.866076 -3.08848,-7.319777 -0.22141,-4.368694 1.07324,-8.014478 4.14468,-11.671509 3.31781,-3.950393 7.45987,-6.060545 12.87799,-6.560637 7.98538,-0.737047 16.78693,5.106434 19.46688,12.924361 0.69372,2.023716 0.95961,6.225389 0.50757,8.020621 -0.50574,2.008444 -1.55493,3.971803 -2.74758,5.141534 -2.27925,2.235448 -5.95379,3.308842 -8.68733,2.537706 z"
         id="path1613" /><path
         style="fill:#1b8882;fill-opacity:1;stroke-width:0.264583"
         d="m 328.23,172.5383 c -7.5709,-2.64354 -18.20919,-6.593 -20.90209,-7.75989 -0.65484,-0.28377 -2.14312,-0.8696 -3.30729,-1.30187 -4.06981,-1.51116 -6.64172,-3.26445 -7.55447,-5.14994 -1.37813,-2.84684 0.28515,-6.90391 4.86881,-11.876 2.3316,-2.52918 3.6117,-5.71665 3.6117,-8.99315 0,-4.59637 -1.71869,-7.59622 -6.01295,-10.49519 -3.43385,-2.31813 -7.68464,-4.036 -16.21205,-6.55177 -2.98317,-0.88011 -7.20989,-2.12799 -9.3927,-2.77306 -8.00416,-2.36544 -11.94037,-4.57497 -13.79845,-7.74555 -0.50561,-0.86275 -0.66245,-1.49813 -0.65688,-2.66111 0.0135,-2.83488 1.28989,-4.74087 3.99874,-5.97145 1.721,-0.78181 6.37539,-2.371419 6.52003,-2.226774 0.0419,0.04194 -0.0917,0.547947 -0.29708,1.124454 -0.45868,1.2878 -0.50043,3.44267 -0.09,4.64675 1.25652,3.68649 4.39351,5.58424 15.25746,9.23016 15.72336,5.27671 20.31338,7.28127 26.84869,11.7254 2.41771,1.64408 5.42826,4.65982 6.26701,6.27782 2.23941,4.31995 1.5504,8.60498 -2.29845,14.29438 -2.2323,3.2998 -2.55214,3.91755 -2.988,5.77117 -0.71858,3.05597 0.2172,6.09343 2.53566,8.23051 1.42802,1.3163 3.01338,2.11323 6.6149,3.32516 4.62627,1.55676 8.1664,3.41813 10.07064,5.29505 1.09926,1.0835 1.73352,1.95687 1.95292,2.68915 0.35422,1.18227 0.17267,2.46575 -0.34482,2.43773 -0.17913,-0.01 -2.29022,-0.70359 -4.69131,-1.54198 z"
         id="path1611" /><path
         id="path1609"
         style="fill:#1b8882;fill-opacity:1;stroke:none;stroke-width:0.26647"
         d="m 237.34648,125.70147 -4.71497,4.46535 c 1.11562,0.75878 2.22885,1.28667 3.88949,1.99441 10.54057,4.49221 13.11636,6.13482 14.72303,9.39011 0.69633,1.4108 0.77045,1.82026 0.76339,4.22034 -0.007,2.3936 -0.0845,2.81041 -0.78165,4.19334 -0.87404,1.73376 -2.58844,3.45458 -4.5579,4.57488 -9.20674,5.23712 -12.41562,13.44321 -7.2389,18.51134 3.09239,3.0275 7.77188,4.29074 18.59373,5.01976 2.42265,0.16321 4.45671,0.34783 4.51982,0.41061 0.063,0.0627 0.40985,0.11421 0.77069,0.11421 0.56352,0 0.60745,-0.0584 0.31099,-0.41373 -0.18983,-0.22756 -1.90144,-1.33387 -3.80339,-2.45849 -4.33935,-2.56583 -6.12872,-4.20942 -6.71292,-6.16646 -0.56303,-1.88615 -0.53553,-3.3057 0.10332,-5.36341 0.65806,-2.11954 1.44535,-3.30744 4.73948,-7.14861 5.04542,-5.88331 7.77162,-9.95769 8.78707,-13.13392 0.79545,-2.48808 0.71328,-3.72549 -0.34751,-5.25335 -1.43811,-2.07131 -4.79204,-3.71471 -11.46233,-5.61673 -3.33567,-0.95115 -9.48652,-3.29583 -13.46551,-5.13293 -1.35328,-0.62482 -2.76341,-1.39296 -4.11593,-2.20672 z" /><path
         id="path3123"
         style="fill:#075063;stroke:none;stroke-width:0.264583"
         d="m 239.62258,58.2104 c -0.84101,0 -1.20202,0.540984 -0.93121,1.394231 0.159,0.50095 0.0929,0.514969 -1.38337,0.293522 -0.8525,-0.127875 -2.39511,-0.2229 -3.42822,-0.21084 -1.60094,0.01868 -2.19954,0.172487 -4.05091,1.04128 -1.26952,0.595753 -2.50057,1.393548 -2.96261,1.919779 -0.70891,0.80694 -0.78209,1.055885 -0.71159,2.398304 l 0.0785,1.498099 1.29501,0.08217 c 0.87392,0.05547 1.70744,-0.09512 2.56264,-0.463021 0.69707,-0.299879 1.57601,-0.545186 1.95285,-0.545186 0.96402,0 3.49095,0.927758 4.6917,1.722375 l 1.01183,0.669727 -0.0687,13.808976 -0.0682,13.809493 -0.92604,0.24908 c -1.18908,0.320035 -4.18554,1.295148 -6.21771,2.023133 -4.96346,1.778067 -9.57066,5.252348 -11.09648,8.368478 -1.60452,3.27685 -1.53458,6.17236 0.23565,9.76995 1.22288,2.48521 1.75311,3.1198 7.40936,8.87284 2.92042,2.97039 4.43766,4.43822 5.95054,5.47253 l 4.66949,-4.4452 c -2.80804,-1.69827 -5.34363,-3.61519 -6.43217,-4.96973 -1.76921,-2.20154 -2.71266,-4.89161 -2.71766,-7.75043 -0.003,-1.41803 0.14733,-2.04521 0.80305,-3.35742 1.72445,-3.45093 5.51831,-6.21073 10.96781,-7.97884 3.22685,-1.04696 12.44045,-2.947474 16.7044,-3.445777 1.29007,-0.150762 4.01247,-0.47304 6.04976,-0.715718 7.78333,-0.927129 41.17099,-0.751795 68.32245,0.358634 5.9995,0.245361 10.99227,0.362079 11.09493,0.259416 0.39122,-0.391218 -0.44039,-0.743733 -2.93936,-1.246436 -3.13314,-0.630274 -6.58442,-1.061503 -16.83256,-2.10168 -4.3028,-0.436729 -8.43622,-0.910036 -9.18549,-1.052133 -1.72796,-0.327699 -11.04313,-1.188255 -19.10684,-1.76475 -8.59091,-0.614142 -28.05859,-0.610268 -34.79271,0.0067 -5.35777,0.490884 -10.27383,1.169732 -15.50396,2.141472 -1.95024,0.362348 -3.60877,0.660158 -3.68557,0.661458 -0.12184,0.0022 -0.0797,-34.411766 0.0434,-35.451583 0.12364,-1.044608 -0.0452,-1.322917 -0.80202,-1.322917 z" /><path
         style="fill:#1b8882;fill-opacity:1;stroke-width:0.264583"
         d="m 347.54458,195.6502 c -2.87798,-2.53865 -7.95376,-5.93792 -12.17084,-8.15087 -11.40247,-5.98356 -29.9558,-12.46915 -48.94791,-17.11048 -10.22966,-2.49993 -14.14784,-3.88667 -15.77221,-5.58214 -0.62113,-0.64833 -0.76393,-1.0298 -0.76253,-2.03711 0.002,-1.60124 0.54854,-2.36255 4.09932,-5.71238 8.33383,-7.86219 10.1244,-9.8301 11.61722,-12.76777 3.18108,-6.25997 1.22922,-11.59672 -5.53199,-15.12548 -2.26525,-1.18226 -8.22411,-3.27548 -12.17064,-4.27528 -6.05825,-1.53477 -13.79831,-4.09205 -16.84082,-5.5641 -2.59696,-1.25649 -5.0989,-3.59636 -5.79532,-5.41992 -0.53653,-1.40489 -0.41208,-3.74675 0.27008,-5.08215 0.64887,-1.27021 3.50333,-4.1028 5.27197,-5.23157 1.77056,-1.13 4.9746,-2.36197 6.85074,-2.63415 l 1.26603,-0.18367 -1.07194,1.40667 c -3.50067,4.59375 -2.02437,10.15891 3.64468,13.73924 3.3525,2.1173 5.00803,2.72666 16.43105,6.04791 10.01632,2.91224 11.56418,3.42592 15.12426,5.01915 4.54129,2.03236 7.36727,4.26664 8.37854,6.62426 0.58551,1.36505 0.84612,3.71617 0.57515,5.18897 -0.39028,2.1213 -1.63224,4.26123 -4.69201,8.08447 -3.51467,4.39164 -4.31942,5.9557 -4.48449,8.71577 -0.16611,2.77741 0.38271,4.55369 1.94325,6.28938 1.43432,1.59531 4.29173,3.42915 6.8632,4.40468 1.01865,0.38644 2.38787,0.92141 3.04271,1.18882 2.61386,1.0674 6.49407,2.48035 12.7,4.62462 6.9526,2.40227 16.80729,6.28498 19.90516,7.84255 8.54436,4.29602 11.91314,6.78617 13.47736,9.96227 0.88664,1.80028 0.81565,3.95753 -0.2007,6.09895 l -0.77036,1.62315 z"
         id="path1607" /><path
         style="fill:#075063;stroke-width:0.264583"
         d="m 336.2915,201.85378 c -2.20225,-2.24921 -6.44916,-5.71622 -9.11984,-7.44509 -4.76899,-3.08721 -11.98309,-6.48889 -17.72708,-8.35889 -3.08415,-1.00406 -11.65073,-3.37708 -13.09687,-3.62795 -0.58209,-0.10097 -2.54662,-0.51822 -4.36563,-0.92721 -5.51542,-1.24009 -13.78269,-2.35668 -20.7021,-2.79604 l -2.84273,-0.18051 -1.54309,-1.48248 c -0.96654,-0.92859 -2.47467,-1.96591 -4.03644,-2.77635 -5.52634,-2.86777 -7.36417,-4.97247 -7.06457,-8.09042 0.18407,-1.91566 1.03726,-3.36905 3.98525,-6.78875 5.98273,-6.94007 9.1213,-11.75041 9.87393,-15.13334 0.77389,-3.47848 0.0888,-6.11073 -2.15897,-8.29535 -2.20605,-2.14407 -3.8788,-2.90903 -12.87426,-5.8875 -11.49141,-3.80491 -16.03252,-6.01873 -19.91931,-9.71079 -2.34375,-2.22633 -3.3278,-3.9537 -3.50197,-6.14725 -0.29922,-3.76824 1.18082,-5.72101 6.1478,-8.11142 3.31065,-1.59329 6.02972,-2.52146 8.23002,-2.80937 l 1.29498,-0.16945 -1.6414,1.55834 c -2.35372,2.2346 -3.1207,3.98302 -3.12092,7.11458 -1.5e-4,2.06886 0.0964,2.57784 0.73571,3.87976 0.89766,1.82794 2.29428,3.26027 4.83771,4.96142 2.96705,1.98448 6.82824,3.37064 20.35557,7.30757 10.60632,3.08682 13.9497,4.82745 15.58822,8.11552 0.82921,1.66402 0.86823,2.99963 0.15142,5.18316 -1.09491,3.33525 -3.10874,5.90208 -8.30571,10.58649 -7.54135,6.79756 -8.50053,8.03373 -8.48352,10.93326 0.0188,3.20384 2.5173,5.50222 7.82993,7.20281 1.65508,0.52979 6.28346,1.79049 10.28528,2.80154 25.56438,6.45877 42.35021,12.65078 54.25082,20.01219 3.91032,2.41883 9.13796,6.50412 8.69901,6.7981 -0.53405,0.35768 -9.52631,3.8963 -9.90118,3.8963 -0.15446,0 -0.99149,-0.7258 -1.86006,-1.61288 z"
         id="path1605" /><path
         style="fill:#075063;stroke-width:0.264583"
         d="m 324.12895,204.56166 c -7.29661,-5.58741 -17.98581,-9.71279 -31.65289,-12.21609 -10.51908,-1.92671 -19.78401,-2.94892 -45.60544,-5.03172 -10.12245,-0.81649 -16.33726,-1.52262 -19.94637,-2.2663 -5.1422,-1.05959 -8.33281,-3.17785 -9.18092,-6.09526 -0.64597,-2.22204 -0.0862,-6.00194 1.02537,-6.92449 0.52857,-0.43867 4.71844,-2.46962 7.77532,-3.76892 1.42974,-0.60769 3.75822,-1.68564 5.1744,-2.39543 1.41619,-0.7098 2.64249,-1.29054 2.72512,-1.29054 0.0826,0 0.0735,0.68461 -0.0204,1.52136 -0.21099,1.88141 0.24672,4.51831 1.09588,6.31343 0.90409,1.91124 3.02776,3.8057 5.86165,5.22896 4.45232,2.23609 7.88414,2.84388 20.30659,3.59639 17.19401,1.04156 29.58188,2.85538 41.67187,6.10157 11.84681,3.18088 20.62344,7.40589 27.78125,13.3737 1.88762,1.5738 4.48106,4.08085 4.22228,4.08162 -0.0667,2e-4 -1.13327,0.17863 -2.3702,0.39651 -1.23692,0.21789 -3.43958,0.39438 -4.89479,0.3922 l -2.64583,-0.004 -1.32292,-1.01303 z"
         id="path1603" /><path
         style="fill:#1b8882;fill-opacity:1;stroke-width:0.264583"
         d="m 310.37062,206.4527 c -0.58208,-0.055 -2.84427,-0.33749 -5.02708,-0.62774 -24.1827,-3.21561 -41.32068,-4.73915 -71.17292,-6.32716 -13.59273,-0.72308 -20.51137,-1.90159 -25.5566,-4.35328 -2.35602,-1.14489 -3.45386,-2.02663 -4.60581,-3.6992 -1.75296,-2.54523 -1.50722,-5.83489 0.68061,-9.11119 1.42151,-2.12874 5.45863,-5.31536 7.55024,-5.95965 0.51334,-0.15812 0.56931,-0.0496 0.69889,1.35546 0.19617,2.12715 1.1838,4.17544 2.91475,6.04508 2.18225,2.35708 5.06493,3.75152 10.36876,5.01569 3.57264,0.85153 5.75172,1.09691 15.22521,1.71443 11.67511,0.76103 19.08105,1.34576 26.98749,2.13077 5.76972,0.57285 12.19797,1.34212 16.53646,1.97892 1.45521,0.21359 3.5388,0.51383 4.63021,0.6672 9.65611,1.3569 22.17213,5.07361 27.30399,8.10809 2.2814,1.349 3.75216,2.61126 3.50623,3.00919 -0.14152,0.22897 -7.75393,0.26946 -10.04043,0.0534 z"
         id="path1549" /></g></g></svg>
