<?xml version="1.0" encoding="UTF-8" standalone="no"?>
<svg
   width="280"
   height="133"
   viewBox="0 0 280 133"
   version="1.1"
   xml:space="preserve"
   style="clip-rule:evenodd;fill-rule:evenodd;stroke-linejoin:round;stroke-miterlimit:2"
   id="svg1883"
   sodipodi:docname="moon.svg"
   inkscape:version="1.2.2 (732a01da63, 2022-12-09)"
   xmlns:inkscape="http://www.inkscape.org/namespaces/inkscape"
   xmlns:sodipodi="http://sodipodi.sourceforge.net/DTD/sodipodi-0.dtd"
   xmlns="http://www.w3.org/2000/svg"
   xmlns:svg="http://www.w3.org/2000/svg"><defs
     id="defs1887" /><sodipodi:namedview
     id="namedview1885"
     pagecolor="#012a36"
     bordercolor="#000000"
     borderopacity="0.25"
     inkscape:showpageshadow="2"
     inkscape:pageopacity="1"
     inkscape:pagecheckerboard="0"
     inkscape:deskcolor="#d1d1d1"
     showgrid="false"
     inkscape:zoom="2.0805257"
     inkscape:cx="118.96032"
     inkscape:cy="77.384288"
     inkscape:window-width="1366"
     inkscape:window-height="705"
     inkscape:window-x="1432"
     inkscape:window-y="165"
     inkscape:window-maximized="1"
     inkscape:current-layer="svg1883" /><g
     id="g1881"
     transform="translate(10.49,10.137494)"
     style="fill:#ffffff;fill-opacity:1"><path
       d="m 108.2,0 3.89,10.98 3.48,-5.71 z"
       style="fill:#ffffff;fill-rule:nonzero;fill-opacity:1"
       id="path1775" /><path
       d="m 108.2,0 3.89,10.98 3.48,-5.71 z"
       style="fill:#ffffff;fill-rule:nonzero;fill-opacity:1"
       id="path1777" /><g
       id="g1879"
       style="fill:#ffffff;fill-opacity:1"><path
         d="m 134.7,13.66 c 17.02,1.07 32.19,4.29 43.9,8.8 -9.23,-6.09 -24.67,-10.5 -42.92,-11.96 z m -68.38,8.8 c 11.78,-4.53 27.06,-7.77 44.11,-8.82 l -1.11,-3.16 c -18.2,1.45 -33.62,5.87 -43,11.98 m 45.55,-12.17 1.12,3.21 c 3.08,-0.15 6.22,-0.22 9.41,-0.22 3.31,0 6.57,0.08 9.78,0.24 l 0.99,-3.21 c -3.5,-0.23 -7.1,-0.34 -10.77,-0.34 -3.59,0 -7.11,0.11 -10.53,0.32"
         style="fill:#ffffff;fill-rule:nonzero;fill-opacity:1"
         id="path1779" /><path
         d="m 129.4,5.29 3.46,5.91 3.91,-11.17 z"
         style="fill:#ffffff;fill-rule:nonzero;fill-opacity:1"
         id="path1781" /><path
         d="m 129.4,5.29 3.46,5.91 3.91,-11.17 z"
         style="fill:#ffffff;fill-rule:nonzero;fill-opacity:1"
         id="path1783" /><path
         d="m 122.428,0.003 -2.181,2.176 2.176,2.18 2.18,-2.175 z"
         style="fill:#ffffff;fill-opacity:1"
         id="path1785" /><path
         d="m 122.428,0.003 -2.181,2.176 2.176,2.18 2.18,-2.175 z"
         style="fill:#ffffff;fill-opacity:1"
         id="path1787" /><path
         d="m 119.374,3.114 -2.172,2.17 2.17,2.172 2.172,-2.17 z"
         style="fill:#ffffff;fill-opacity:1"
         id="path1789" /><path
         d="m 119.374,3.119 -2.171,2.17 2.171,2.171 2.171,-2.171 z"
         style="fill:#ffffff;fill-opacity:1"
         id="path1791" /><path
         d="m 125.572,3.123 -2.169,2.173 2.174,2.169 2.168,-2.174 z"
         style="fill:#ffffff;fill-opacity:1"
         id="path1793" /><path
         d="m 125.572,3.123 -2.169,2.174 2.174,2.168 2.168,-2.173 z"
         style="fill:#ffffff;fill-opacity:1"
         id="path1795" /><path
         d="M 16.78,33.59 9.7,45.98 2.85,33.59 H 0 V 53.46 H 2.82 V 39.56 L 9.7,51.84 16.75,39.56 v 13.9 h 2.91 V 33.59 Z"
         style="fill:#ffffff;fill-rule:nonzero;fill-opacity:1"
         id="path1797" /><path
         d="M 16.78,33.59 9.7,45.98 2.85,33.59 H 0 V 53.46 H 2.82 V 39.56 L 9.7,51.84 16.75,39.56 v 13.9 h 2.91 V 33.59 Z"
         style="fill:#ffffff;fill-rule:nonzero;fill-opacity:1"
         id="path1799" /><path
         d="M 47.49,43.55 C 47.49,37.61 42.69,33 36.81,33 31.11,33 26.1,37.4 26.1,43.23 c 0,6 4.66,10.71 10.68,10.71 5.75,0 10.71,-4.53 10.71,-10.39 m -10.68,7.46 c -4.16,0 -7.86,-3.14 -7.86,-7.43 0,-4.48 3.41,-7.65 7.83,-7.65 4.24,0 7.83,3.09 7.83,7.46 0,4.32 -3.54,7.62 -7.8,7.62"
         style="fill:#ffffff;fill-rule:nonzero;fill-opacity:1"
         id="path1801" /><path
         d="M 47.49,43.55 C 47.49,37.61 42.69,33 36.81,33 31.11,33 26.1,37.4 26.1,43.23 c 0,6 4.66,10.71 10.68,10.71 5.75,0 10.71,-4.53 10.71,-10.39 m -10.68,7.46 c -4.16,0 -7.86,-3.14 -7.86,-7.43 0,-4.48 3.41,-7.65 7.83,-7.65 4.24,0 7.83,3.09 7.83,7.46 0,4.32 -3.54,7.62 -7.8,7.62"
         style="fill:#ffffff;fill-rule:nonzero;fill-opacity:1"
         id="path1803" /><path
         d="m 63.38,33 c -5.7,0 -10.71,4.4 -10.71,10.23 0,6 4.66,10.71 10.68,10.71 5.75,0 10.71,-4.53 10.71,-10.39 C 74.07,37.61 69.27,33 63.38,33 m 0,18.01 c -4.16,0 -7.86,-3.14 -7.86,-7.43 0,-4.48 3.41,-7.65 7.83,-7.65 4.24,0 7.83,3.09 7.83,7.46 0.01,4.32 -3.53,7.62 -7.8,7.62"
         style="fill:#ffffff;fill-rule:nonzero;fill-opacity:1"
         id="path1805" /><path
         d="m 63.38,33 c -5.7,0 -10.71,4.4 -10.71,10.23 0,6 4.66,10.71 10.68,10.71 5.75,0 10.71,-4.53 10.71,-10.39 C 74.07,37.61 69.27,33 63.38,33 m 0,18.01 c -4.16,0 -7.86,-3.14 -7.86,-7.43 0,-4.48 3.41,-7.65 7.83,-7.65 4.24,0 7.83,3.09 7.83,7.46 0.01,4.32 -3.53,7.62 -7.8,7.62"
         style="fill:#ffffff;fill-rule:nonzero;fill-opacity:1"
         id="path1807" /><path
         d="m 83.38,38.33 11.99,15.13 h 2.88 V 33.59 H 95.32 V 48.77 L 83.36,33.59 h -2.83 v 19.87 h 2.85 z"
         style="fill:#ffffff;fill-rule:nonzero;fill-opacity:1"
         id="path1809" /><path
         d="m 83.38,38.33 11.99,15.13 h 2.88 V 33.59 H 95.32 V 48.77 L 83.36,33.59 h -2.83 v 19.87 h 2.85 z"
         style="fill:#ffffff;fill-rule:nonzero;fill-opacity:1"
         id="path1811" /><path
         d="m 119.01,45.02 h 8.63 c 3.49,0 5.81,-2.24 5.81,-5.75 0,-3.57 -2.29,-5.67 -5.81,-5.67 H 116.1 v 19.88 h 2.91 z m 0,-8.53 h 8.63 c 1.92,0 2.93,0.8 2.93,2.77 0,1.92 -1.07,2.83 -2.93,2.83 h -8.63 z"
         style="fill:#ffffff;fill-rule:nonzero;fill-opacity:1"
         id="path1813" /><path
         d="m 119.01,45.02 h 8.63 c 3.49,0 5.81,-2.24 5.81,-5.75 0,-3.57 -2.29,-5.67 -5.81,-5.67 H 116.1 v 19.88 h 2.91 z m 0,-8.53 h 8.63 c 1.92,0 2.93,0.8 2.93,2.77 0,1.92 -1.07,2.83 -2.93,2.83 h -8.63 z"
         style="fill:#ffffff;fill-rule:nonzero;fill-opacity:1"
         id="path1815" /><path
         d="m 140.57,46.99 h 8.93 l 2.85,6.47 h 3.25 l -8.9,-19.85 h -3.2 l -9.03,19.85 h 3.14 z m 4.48,-9.86 3.15,6.93 h -6.29 z"
         style="fill:#ffffff;fill-rule:nonzero;fill-opacity:1"
         id="path1817" /><path
         d="m 140.57,46.99 h 8.93 l 2.85,6.47 h 3.25 l -8.9,-19.85 h -3.2 l -9.03,19.85 h 3.14 z m 4.48,-9.86 3.15,6.93 h -6.29 z"
         style="fill:#ffffff;fill-rule:nonzero;fill-opacity:1"
         id="path1819" /><path
         d="m 175.52,50.56 h -12.1 V 33.59 h -2.9 v 19.88 h 15 z"
         style="fill:#ffffff;fill-rule:nonzero;fill-opacity:1"
         id="path1821" /><path
         d="m 175.52,50.56 h -12.1 V 33.59 h -2.9 v 19.88 h 15 z"
         style="fill:#ffffff;fill-rule:nonzero;fill-opacity:1"
         id="path1823" /><path
         d="m 199.73,53.46 -8.9,-19.85 h -3.2 l -9.03,19.85 h 3.15 l 2.96,-6.47 h 8.92 l 2.85,6.47 z m -13.7,-9.4 3.15,-6.93 3.14,6.93 z"
         style="fill:#ffffff;fill-rule:nonzero;fill-opacity:1"
         id="path1825" /><path
         d="m 199.73,53.46 -8.9,-19.85 h -3.2 l -9.03,19.85 h 3.15 l 2.96,-6.47 h 8.92 l 2.85,6.47 z m -13.7,-9.4 3.15,-6.93 3.14,6.93 z"
         style="fill:#ffffff;fill-rule:nonzero;fill-opacity:1"
         id="path1827" /><path
         d="m 222.89,49.89 -1.92,-2.08 c -2.16,2.16 -4.1,3.19 -7.22,3.19 -4.48,0 -8.53,-2.66 -8.53,-7.49 0,-4.5 3.54,-7.51 7.91,-7.51 2.85,0 5.14,1.22 7.27,3.01 l 2.16,-1.84 c -2.61,-2.53 -5.92,-4.08 -9.59,-4.08 -5.94,0 -10.6,4.34 -10.6,10.36 0,6.37 5.06,10.47 11.19,10.47 3.65,0.02 6.93,-1.2 9.33,-4.03"
         style="fill:#ffffff;fill-rule:nonzero;fill-opacity:1"
         id="path1829" /><path
         d="m 222.89,49.89 -1.92,-2.08 c -2.16,2.16 -4.1,3.19 -7.22,3.19 -4.48,0 -8.53,-2.66 -8.53,-7.49 0,-4.5 3.54,-7.51 7.91,-7.51 2.85,0 5.14,1.22 7.27,3.01 l 2.16,-1.84 c -2.61,-2.53 -5.92,-4.08 -9.59,-4.08 -5.94,0 -10.6,4.34 -10.6,10.36 0,6.37 5.06,10.47 11.19,10.47 3.65,0.02 6.93,-1.2 9.33,-4.03"
         style="fill:#ffffff;fill-rule:nonzero;fill-opacity:1"
         id="path1831" /><path
         d="m 231.25,44.59 h 6.77 v -2.88 h -6.77 v -5.19 h 13.46 v -2.93 h -16.36 v 19.87 h 16.86 v -2.9 h -13.96 z"
         style="fill:#ffffff;fill-rule:nonzero;fill-opacity:1"
         id="path1833" /><path
         d="m 231.25,44.59 h 6.77 v -2.88 h -6.77 v -5.19 h 13.46 v -2.93 h -16.36 v 19.87 h 16.86 v -2.9 h -13.96 z"
         style="fill:#ffffff;fill-rule:nonzero;fill-opacity:1"
         id="path1835" /><path
         d="m 253.38,44.91 c -3.13,0 -5.65,-2.52 -5.65,-5.64 0,-3.11 2.52,-5.64 5.64,-5.64 3.13,0 5.65,2.52 5.65,5.64 0,3.12 -2.52,5.64 -5.64,5.64 m 0,-10.48 c -2.68,0 -4.86,2.17 -4.86,4.84 0,2.67 2.19,4.84 4.84,4.84 2.68,0 4.86,-2.16 4.86,-4.84 0.01,-2.67 -2.15,-4.84 -4.84,-4.84 m 2.42,4.92 c -0.29,0.18 -0.54,0.26 -0.82,0.3 l 1.53,2.44 h -0.97 l -1.51,-2.41 h -2.38 v 2.41 h -0.86 v -5.97 h 3.64 c 0.55,0 0.84,0.03 1.23,0.25 0.54,0.29 0.86,0.97 0.86,1.53 0.01,0.5 -0.27,1.13 -0.72,1.45 m -0.53,-2.27 c -0.2,-0.13 -0.39,-0.16 -0.97,-0.16 h -2.64 v 1.95 h 2.78 c 0.5,0 0.69,-0.07 0.85,-0.17 0.26,-0.18 0.39,-0.5 0.39,-0.84 0.01,-0.32 -0.13,-0.6 -0.41,-0.78"
         style="fill:#ffffff;fill-rule:nonzero;fill-opacity:1"
         id="path1837" /><path
         d="m 87.82,72.51 c -1.32,1.43 -2.97,2.78 -6.97,2.78 -3.77,0 -7.34,-2.88 -7.34,-7.15 0,-4.11 3.18,-7.38 7.3,-7.38 3.81,0 6.11,2.19 6.78,2.84 l -1.51,1.28 c -0.63,-0.52 -2.4,-2.12 -5.26,-2.12 -2.6,0 -5.31,1.9 -5.31,5.37 0,2.49 2.01,5.14 5.82,5.14 2.97,0 4.53,-1.5 5.15,-2.23 z"
         style="fill:#ffffff;fill-rule:nonzero;fill-opacity:1"
         id="path1839" /><path
         d="m 104.26,75 h -2.27 L 100,70.41 H 93.78 L 91.71,75 h -2.19 l 6.3,-13.93 h 2.23 z M 96.9,63.55 94.71,68.4 h 4.39 z"
         style="fill:#ffffff;fill-rule:nonzero;fill-opacity:1"
         id="path1841" /><path
         d="m 109.45,61.06 8.28,10.6 h 0.04 v -10.6 h 2.01 V 75 h -2.01 l -8.29,-10.59 h -0.03 V 75 h -2.01 V 61.06 Z"
         style="fill:#ffffff;fill-rule:nonzero;fill-opacity:1"
         id="path1843" /><path
         d="m 138.39,72.51 c -1.32,1.43 -2.97,2.78 -6.97,2.78 -3.77,0 -7.34,-2.88 -7.34,-7.15 0,-4.11 3.18,-7.38 7.3,-7.38 3.81,0 6.11,2.19 6.78,2.84 l -1.51,1.28 c -0.63,-0.52 -2.4,-2.12 -5.26,-2.12 -2.6,0 -5.31,1.9 -5.31,5.37 0,2.49 2.01,5.14 5.82,5.14 2.97,0 4.53,-1.5 5.15,-2.23 z"
         style="fill:#ffffff;fill-rule:nonzero;fill-opacity:1"
         id="path1845" /><path
         d="m 154.78,69.74 c 0,2.64 -1,5.56 -6.11,5.56 -5.11,0 -6.11,-2.92 -6.11,-5.56 v -8.68 h 2.01 v 8.68 c 0,2.04 0.85,3.55 4.1,3.55 3.25,0 4.11,-1.51 4.11,-3.55 v -8.68 h 2.01 v 8.68 z"
         style="fill:#ffffff;fill-rule:nonzero;fill-opacity:1"
         id="path1847" /><path
         d="m 162.43,61.06 8.29,10.6 h 0.04 v -10.6 h 2 V 75 h -2 l -8.29,-10.59 h -0.04 V 75 h -2 V 61.06 Z"
         style="fill:#ffffff;fill-rule:nonzero;fill-opacity:1"
         id="path1849" /><path
         d="m 65.95,111.71 c 0.13,0.43 -0.12,0.85 -0.57,0.97 -0.43,0.13 -0.85,-0.13 -0.98,-0.55 0,0 -0.32,-1.23 -0.8,-2.93 h -4.85 c -0.48,1.7 -0.8,2.93 -0.8,2.93 -0.13,0.42 -0.55,0.67 -1,0.55 -0.42,-0.13 -0.68,-0.55 -0.55,-0.97 l 4,-14.51 c 0.1,-0.35 0.43,-0.6 0.78,-0.6 0.35,0 0.68,0.25 0.78,0.6 z m -2.8,-4.1 c -0.67,-2.48 -1.47,-5.38 -1.98,-7.21 -0.5,1.83 -1.3,4.73 -1.98,7.21 z"
         style="fill:#ffffff;fill-rule:nonzero;fill-opacity:1"
         id="path1851" /><path
         d="m 67.63,96.62 c 0.43,-0.1 0.88,0.15 0.97,0.6 0,0 1.78,7.38 2.73,11.28 0.92,-3.9 2.73,-11.28 2.73,-11.28 0.07,-0.38 0.4,-0.63 0.78,-0.63 0.37,0 0.68,0.25 0.77,0.63 0,0 1.78,7.38 2.73,11.28 0.92,-3.9 2.73,-11.28 2.73,-11.28 0.1,-0.45 0.53,-0.7 0.95,-0.6 0.43,0.1 0.7,0.53 0.6,0.97 l -3.5,14.51 c -0.1,0.35 -0.4,0.6 -0.77,0.6 -0.38,0 -0.7,-0.25 -0.78,-0.6 0,0 -1.8,-7.41 -2.73,-11.31 -0.95,3.9 -2.73,11.31 -2.73,11.31 -0.1,0.35 -0.4,0.6 -0.77,0.6 -0.38,0 -0.7,-0.25 -0.78,-0.6 l -3.5,-14.51 c -0.11,-0.44 0.14,-0.87 0.57,-0.97"
         style="fill:#ffffff;fill-rule:nonzero;fill-opacity:1"
         id="path1853" /><path
         d="m 85.77,97.5 c 0,-0.45 0.35,-0.8 0.8,-0.8 h 5 c 0.45,0 0.8,0.35 0.8,0.8 0,0.45 -0.35,0.8 -0.8,0.8 h -4.2 v 5.3 h 3.7 c 0.45,0 0.8,0.35 0.8,0.8 0,0.45 -0.35,0.8 -0.8,0.8 h -3.7 v 5.81 h 4.2 c 0.45,0 0.8,0.35 0.8,0.8 0,0.45 -0.35,0.8 -0.8,0.8 h -5 c -0.45,0 -0.8,-0.35 -0.8,-0.8 z"
         style="fill:#ffffff;fill-rule:nonzero;fill-opacity:1"
         id="path1855" /><path
         d="m 101.98,106.21 h -6.01 c -0.45,0 -0.8,-0.35 -0.8,-0.8 0,-0.45 0.35,-0.8 0.8,-0.8 h 6.01 c 0.42,0 0.8,0.35 0.8,0.8 0,0.44 -0.38,0.8 -0.8,0.8"
         style="fill:#ffffff;fill-rule:nonzero;fill-opacity:1"
         id="path1857" /><path
         d="M 106.38,111.91 V 97.4 c 0,-0.45 0.38,-0.8 0.8,-0.8 0.45,0 0.8,0.35 0.8,0.8 v 14.51 c 0,0.45 -0.35,0.8 -0.8,0.8 -0.42,0 -0.8,-0.35 -0.8,-0.8"
         style="fill:#ffffff;fill-rule:nonzero;fill-opacity:1"
         id="path1859" /><path
         d="m 118.94,112.26 c 0,0 -3.63,-7.51 -5.48,-11.36 v 11.01 c 0,0.45 -0.35,0.8 -0.8,0.8 -0.45,0 -0.8,-0.35 -0.8,-0.8 V 97.4 c 0,-0.37 0.25,-0.7 0.63,-0.77 0.35,-0.08 0.73,0.1 0.9,0.42 0,0 3.6,7.51 5.48,11.36 V 97.4 c 0,-0.45 0.35,-0.8 0.8,-0.8 0.45,0 0.8,0.35 0.8,0.8 v 14.51 c 0,0.38 -0.25,0.7 -0.63,0.77 -0.35,0.11 -0.73,-0.09 -0.9,-0.42"
         style="fill:#ffffff;fill-rule:nonzero;fill-opacity:1"
         id="path1861" /><path
         d="m 124.07,108.91 v -8.51 c 0,-1.73 1.15,-3.23 2.83,-3.68 1.65,-0.45 3.4,0.3 4.28,1.78 0.2,0.38 0.07,0.88 -0.3,1.1 -0.37,0.23 -0.87,0.08 -1.1,-0.3 -0.5,-0.85 -1.5,-1.27 -2.47,-1.03 -0.95,0.25 -1.63,1.13 -1.63,2.13 v 8.51 c 0,1 0.68,1.88 1.63,2.13 0.97,0.25 1.97,-0.18 2.47,-1.03 0.23,-0.38 0.73,-0.5 1.1,-0.3 0.37,0.22 0.5,0.72 0.3,1.1 -0.88,1.5 -2.63,2.22 -4.28,1.78 -1.68,-0.45 -2.83,-1.96 -2.83,-3.68"
         style="fill:#ffffff;fill-rule:nonzero;fill-opacity:1"
         id="path1863" /><path
         d="M 134.5,111.81 V 97.4 c 0,-0.45 0.35,-0.8 0.8,-0.8 0.43,0 0.8,0.35 0.8,0.8 v 13.61 h 4.21 c 0.42,0 0.8,0.35 0.8,0.8 0,0.45 -0.38,0.8 -0.8,0.8 h -5.01 c -0.45,0 -0.8,-0.35 -0.8,-0.8"
         style="fill:#ffffff;fill-rule:nonzero;fill-opacity:1"
         id="path1865" /><path
         d="m 147.31,111.11 c 1.2,0 2.2,-0.98 2.2,-2.2 V 97.4 c 0,-0.45 0.35,-0.8 0.8,-0.8 0.42,0 0.8,0.35 0.8,0.8 v 11.51 c 0,2.1 -1.72,3.8 -3.8,3.8 -2.1,0 -3.8,-1.7 -3.8,-3.8 V 97.4 c 0,-0.45 0.35,-0.8 0.8,-0.8 0.42,0 0.8,0.35 0.8,0.8 v 11.51 c 0,1.22 0.98,2.2 2.2,2.2"
         style="fill:#ffffff;fill-rule:nonzero;fill-opacity:1"
         id="path1867" /><path
         d="m 160.05,108.96 c 0.05,-0.65 -0.17,-1.32 -0.65,-1.8 l -4,-4.1 c -0.75,-0.78 -1.15,-1.85 -1.05,-2.93 0.08,-1.1 0.63,-2.1 1.5,-2.75 0.85,-0.65 1.98,-0.93 3.05,-0.7 1.05,0.23 1.98,0.88 2.53,1.83 0.23,0.38 0.1,0.88 -0.3,1.1 -0.38,0.23 -0.88,0.08 -1.08,-0.3 -0.32,-0.55 -0.85,-0.93 -1.48,-1.05 -0.63,-0.13 -1.28,0.02 -1.78,0.4 -0.5,0.37 -0.8,0.95 -0.85,1.57 -0.05,0.65 0.17,1.25 0.6,1.7 l 4,4.13 c 0.78,0.8 1.18,1.9 1.1,3.03 -0.1,1.12 -0.65,2.15 -1.55,2.83 -0.9,0.68 -2.05,0.95 -3.15,0.73 -1.1,-0.23 -2.05,-0.9 -2.63,-1.88 -0.2,-0.4 -0.07,-0.88 0.3,-1.1 0.38,-0.23 0.88,-0.1 1.1,0.3 0.32,0.58 0.9,0.97 1.55,1.1 0.65,0.13 1.32,-0.02 1.85,-0.43 0.56,-0.4 0.89,-1.01 0.94,-1.68"
         style="fill:#ffffff;fill-rule:nonzero;fill-opacity:1"
         id="path1869" /><path
         d="M 164.88,111.91 V 97.4 c 0,-0.45 0.37,-0.8 0.8,-0.8 0.45,0 0.8,0.35 0.8,0.8 v 14.51 c 0,0.45 -0.35,0.8 -0.8,0.8 -0.43,0 -0.8,-0.35 -0.8,-0.8"
         style="fill:#ffffff;fill-rule:nonzero;fill-opacity:1"
         id="path1871" /><path
         d="m 169.5,97.62 c -0.13,-0.42 0.13,-0.88 0.55,-1 0.43,-0.1 0.88,0.15 0.97,0.58 0,0 2.23,8.05 3.26,11.71 1,-3.65 3.23,-11.71 3.23,-11.71 0.1,-0.43 0.55,-0.68 0.98,-0.58 0.42,0.12 0.67,0.58 0.55,1 l -4,14.51 c -0.07,0.32 -0.4,0.57 -0.75,0.57 -0.38,0 -0.68,-0.25 -0.78,-0.57 z"
         style="fill:#ffffff;fill-rule:nonzero;fill-opacity:1"
         id="path1873" /><path
         d="m 182.06,97.5 c 0,-0.45 0.35,-0.8 0.8,-0.8 h 5 c 0.45,0 0.8,0.35 0.8,0.8 0,0.45 -0.35,0.8 -0.8,0.8 h -4.2 v 5.3 h 3.7 c 0.45,0 0.8,0.35 0.8,0.8 0,0.45 -0.35,0.8 -0.8,0.8 h -3.7 v 5.81 h 4.2 c 0.45,0 0.8,0.35 0.8,0.8 0,0.45 -0.35,0.8 -0.8,0.8 h -5 c -0.45,0 -0.8,-0.35 -0.8,-0.8 z"
         style="fill:#ffffff;fill-rule:nonzero;fill-opacity:1"
         id="path1875" /><path
         d="m 193.2,100.76 v -3.57 h -0.94 c -0.23,0 -0.4,-0.19 -0.4,-0.42 0,-0.23 0.17,-0.4 0.4,-0.4 h 2.7 c 0.23,0 0.42,0.17 0.42,0.4 0,0.23 -0.19,0.42 -0.42,0.42 h -0.93 v 3.57 c 0,0.23 -0.19,0.42 -0.42,0.42 -0.24,0 -0.41,-0.19 -0.41,-0.42 m 4.71,-2.85 c 0.38,-0.54 1.01,-1.43 1.01,-1.43 0.11,-0.14 0.29,-0.2 0.47,-0.15 0.16,0.06 0.28,0.22 0.28,0.39 v 4.04 c 0,0.23 -0.19,0.42 -0.42,0.42 -0.23,0 -0.4,-0.18 -0.4,-0.42 V 98 c -0.3,0.42 -0.6,0.85 -0.6,0.85 -0.08,0.11 -0.2,0.17 -0.34,0.17 -0.13,0 -0.26,-0.07 -0.34,-0.17 0,0 -0.3,-0.43 -0.59,-0.85 v 2.76 c 0,0.23 -0.19,0.42 -0.42,0.42 -0.23,0 -0.4,-0.18 -0.4,-0.42 v -4.04 c 0,-0.18 0.11,-0.34 0.28,-0.39 0.18,-0.05 0.35,0.02 0.46,0.15 0,0 0.64,0.88 1.01,1.43"
         style="fill:#ffffff;fill-rule:nonzero;fill-opacity:1"
         id="path1877" /></g></g></svg>
