<?xml version="1.0" encoding="UTF-8" standalone="no"?>
<svg
   width="135px"
   height="32px"
   viewBox="0 0 135 32"
   version="1.1"
   id="svg439"
   sodipodi:docname="logo-vidanta (1).svg"
   inkscape:version="1.2.2 (732a01da63, 2022-12-09)"
   xmlns:inkscape="http://www.inkscape.org/namespaces/inkscape"
   xmlns:sodipodi="http://sodipodi.sourceforge.net/DTD/sodipodi-0.dtd"
   xmlns:xlink="http://www.w3.org/1999/xlink"
   xmlns="http://www.w3.org/2000/svg"
   xmlns:svg="http://www.w3.org/2000/svg"
   xmlns:rdf="http://www.w3.org/1999/02/22-rdf-syntax-ns#"
   xmlns:cc="http://creativecommons.org/ns#"
   xmlns:dc="http://purl.org/dc/elements/1.1/">
  <sodipodi:namedview
     id="namedview441"
     pagecolor="#252525"
     bordercolor="#000000"
     borderopacity="0.25"
     inkscape:showpageshadow="2"
     inkscape:pageopacity="1"
     inkscape:pagecheckerboard="0"
     inkscape:deskcolor="#d1d1d1"
     showgrid="false"
     inkscape:zoom="2.6962963"
     inkscape:cx="64.347527"
     inkscape:cy="-7.0467033"
     inkscape:window-width="1366"
     inkscape:window-height="705"
     inkscape:window-x="1432"
     inkscape:window-y="165"
     inkscape:window-maximized="1"
     inkscape:current-layer="svg439" />
  <!-- Generator: Sketch 45.1 (43504) - http://www.bohemiancoding.com/sketch -->
  <title
     id="title404">Logo Vidanta Blanco</title>
  <desc
     id="desc406">Created with Sketch.</desc>
  <defs
     id="defs409">
    <polygon
       id="path-1"
       points="0 0.354192593 0 8.02636341 12.6124043 8.02636341 12.6124043 0.354192593 2.38642326e-20 0.354192593" />
  </defs>
  <g
     id="01-Homepage"
     stroke="none"
     stroke-width="1"
     fill="none"
     fill-rule="evenodd"
     transform="matrix(0.86812241,0,0,0.92956459,8.9059607,1.315909)"
     style="fill:#ffffff;fill-opacity:1">
    <g
       id="Homapage-Desktop-Full-B"
       transform="translate(-25,-21)"
       style="fill:#ffffff;fill-opacity:1">
      <g
         id="Group"
         transform="translate(0,-1)"
         style="fill:#ffffff;fill-opacity:1">
        <g
           id="Logo"
           transform="translate(0,1)"
           style="fill:#ffffff;fill-opacity:1">
          <g
             id="Logo-Vidanta-Blanco"
             transform="translate(25,21)"
             style="fill:#ffffff;fill-opacity:1">
            <g
               id="Page-1"
               style="fill:#ffffff;fill-opacity:1">
              <path
                 d="m 18.921306,11.943882 c 2.106587,-2.6891857 0.548805,-7.0471116 0.548805,-7.0471116 1.547217,2.5297778 1.092326,4.8213333 0.53413,6.1872596 0.535892,-0.545186 1.031283,-1.2663707 1.397544,-2.2240004 1.398717,-3.6853333 -2.188761,-6.5552592 0.416152,-8.85985182222 0,0 -2.896631,0.10666666222 -4.374587,3.45007412222 -1.477957,3.3445925 1.14163,3.8601481 -0.831717,9.2977781 0,0 1.101717,-0.06519 2.309673,-0.804148"
                 id="Fill-1"
                 fill="#fefefe"
                 style="fill:#ffffff;fill-opacity:1" />
              <path
                 d="m 16.63423,18.60883 c 0,0 -0.734282,0.833777 -1.067673,2.218666 0.390326,3.403852 4.547152,5.377185 4.547152,5.377185 -2.869044,-0.685629 -4.151544,-2.629925 -4.709739,-3.997037 0,0.769186 0.155543,1.633778 0.567587,2.569482 1.592413,3.605333 6.140152,3.073778 5.911239,6.564148 0,0 1.975108,-2.144 0.676174,-5.563852 -1.296587,-3.419259 -3.510587,-1.912296 -5.92474,-7.168592"
                 id="Fill-3"
                 fill="#fefefe"
                 style="fill:#ffffff;fill-opacity:1" />
              <path
                 d="m 27.790161,18.013926 c -3.31337,-1.490963 -3.822261,1.15437 -9.211109,-0.839111 0,0 0.06867,1.112296 0.800022,2.333037 2.661261,2.126222 6.978326,0.553481 6.978326,0.553481 -2.502196,1.560889 -4.77137,1.104593 -6.124891,0.536889 0.537065,0.542815 1.251978,1.043556 2.199913,1.410963 3.654978,1.412741 6.492913,-2.212148 8.773239,0.421926 0,0 -0.101544,-2.925037 -3.4155,-4.417185"
                 id="Fill-5"
                 fill="#fefefe"
                 style="fill:#ffffff;fill-opacity:1" />
              <path
                 d="m 15.312991,9.4352 c 0,-0.7685926 -0.151434,-1.6343704 -0.567587,-2.5706667 C 13.150057,3.2574222 8.6058391,3.790163 8.836513,0.30334815 c 0,0 -1.9768695,2.14044445 -0.6767608,5.56266665 1.2989348,3.4174815 3.5105868,1.9122963 5.9247388,7.1685922 0,0 0.734283,-0.834963 1.067674,-2.220444 C 14.759491,7.4091259 10.603252,5.4405333 10.603252,5.4405333 13.471709,6.1220148 14.754209,8.0680889 15.312991,9.4352"
                 id="Fill-7"
                 fill="#fefefe"
                 style="fill:#ffffff;fill-opacity:1" />
              <g
                 id="Group-11"
                 transform="translate(0,15.593481)"
                 style="fill:#ffffff;fill-opacity:1">
                <mask
                   id="mask-2"
                   fill="#ffffff">
                  <use
                     xlink:href="#path-1"
                     id="use415" />
                </mask>
                <g
                   id="Clip-10"
                   style="fill:#ffffff;fill-opacity:1" />
                <path
                   d="m 12.612404,1.598637 c 0,0 -0.827608,-0.7413333 -2.201087,-1.07851848 C 7.0433609,0.91715556 5.0887956,5.1091556 5.0887956,5.1091556 5.7661435,2.2173037 7.6925348,0.92011852 9.0484044,0.35419259 8.2877087,0.35537778 7.4284043,0.51241481 6.5004261,0.9296 2.9276217,2.5373037 3.4576435,7.1281185 -1.173913e-4,6.8958222 c 0,0 2.1218477913,1.9958519 5.5103477913,0.6838519 3.3885,-1.3084445 1.8952826,-3.5454815 7.1021736,-5.9810371"
                   id="Fill-9"
                   fill="#fefefe"
                   mask="url(#mask-2)"
                   style="fill:#ffffff;fill-opacity:1" />
              </g>
              <path
                 d="m 3.4277087,14.042844 c 3.3127826,1.493334 3.8228478,-1.152592 9.2111083,0.839112 0,0 -0.0675,-1.112297 -0.800021,-2.33126 C 9.1769478,10.425659 4.8604696,11.99603 4.8604696,11.99603 7.365013,10.432178 9.6347739,10.89203 10.987709,11.458548 10.448883,10.916919 9.7351435,10.4144 8.7842739,10.04877 5.1345783,8.6360296 2.2925348,12.257363 0.01103478,9.6292148 c 0,0 0.10447826,2.9226672 3.41667392,4.4136292"
                 id="Fill-12"
                 fill="#fefefe"
                 style="fill:#ffffff;fill-opacity:1" />
              <path
                 d="m 11.78867,19.649007 c -2.1042396,2.688593 -0.551153,7.047704 -0.551153,7.047704 -1.5442822,-2.528593 -1.092913,-4.819555 -0.530608,-6.187852 -0.536479,0.547556 -1.0336307,1.266963 -1.3963699,2.224 -1.3969565,3.688297 2.1893479,6.558815 -0.4167391,8.860445 0,0 2.897804,-0.104889 4.372239,-3.450667 1.479718,-3.342222 -1.14163,-3.85837 0.835826,-9.298963 0,0 -1.102304,0.06756 -2.313195,0.805333"
                 id="Fill-14"
                 fill="#fefefe"
                 style="fill:#ffffff;fill-opacity:1" />
              <path
                 d="m 20.75267,15.648474 c 3.373826,-0.397037 5.325456,-4.592 5.325456,-4.592 -0.676761,2.892445 -2.6055,4.190222 -3.956674,4.757926 0.759522,-0.0047 1.619413,-0.161185 2.543283,-0.577778 3.569282,-1.610666 3.046304,-6.1967405 6.499956,-5.9644442 0,0 -2.122435,-1.9964445 -5.508587,-0.6838519 -3.386152,1.3078519 -1.893521,3.5442961 -7.100413,5.9786671 0,0 0.826435,0.741926 2.196979,1.081481"
                 id="Fill-16"
                 fill="#fefefe"
                 style="fill:#ffffff;fill-opacity:1" />
              <path
                 d="M 67.0761,21.146133 H 63.027274 V 12.033837 H 67.2111 c 0,0 4.5765,0.201482 4.5765,4.489481 0,4.286223 -4.7115,4.622815 -4.7115,4.622815 M 66.535513,10.23117 h -3.916174 c -1.190348,0 -1.394022,1.472593 -1.394022,1.472593 v 9.64563 c 0,1.273481 1.728587,1.607703 1.728587,1.607703 h 3.977218 c 0,0 7.101587,-0.132148 6.637304,-6.699259 -0.46487,-6.5623703 -7.032913,-6.026667 -7.032913,-6.026667"
                 id="Fill-20"
                 fill="#fefefe"
                 style="fill:#ffffff;fill-opacity:1" />
              <path
                 d="m 49.248998,11.436326 -4.842978,9.643852 -4.842979,-9.643852 c 0,0 -0.332804,-1.207111 -2.523326,-1.207111 l 5.839631,11.721481 c 0,0 0.328108,0.937482 1.526674,0.937482 1.194456,0 1.526087,-0.937482 1.526087,-0.937482 l 5.835521,-11.721481 c -2.186413,0 -2.51863,1.207111 -2.51863,1.207111"
                 id="Fill-22"
                 fill="#fefefe"
                 style="fill:#ffffff;fill-opacity:1" />
              <path
                 d="m 110.00992,11.939852 h 3.50941 v 9.888 c 0,1.228444 1.89528,1.434074 1.89528,1.434074 V 12.006815 h 3.37618 c 1.41926,0 1.48852,-1.703704 1.48852,-1.703704 h -11.61998 c 0,1.703704 1.35059,1.636741 1.35059,1.636741"
                 id="Fill-24"
                 fill="#fefefe"
                 style="fill:#ffffff;fill-opacity:1" />
              <path
                 d="m 55.246989,10.1936 v 11.710222 c 0,1.227852 1.893522,1.433482 1.893522,1.433482 V 11.628267 c 0,-1.22726 -1.893522,-1.434667 -1.893522,-1.434667"
                 id="Fill-26"
                 fill="#fefefe"
                 style="fill:#ffffff;fill-opacity:1" />
              <path
                 d="m 82.102539,10.229452 c -1.192696,0 -1.524913,0.935111 -1.524913,0.935111 l -5.834935,11.723259 c 2.187587,0 2.520979,-1.205926 2.520979,-1.205926 l 1.030695,-2.058074 h 4.928674 c 0.930913,0 1.261957,-1.673481 1.261957,-1.673481 h -5.348935 l 2.966478,-5.912297 4.848261,9.643852 c 0,0 0.328109,1.205926 2.517456,1.205926 L 83.630974,11.164563 c 0,0 -0.334565,-0.935111 -1.528435,-0.935111"
                 id="Fill-28"
                 fill="#fefefe"
                 style="fill:#ffffff;fill-opacity:1" />
              <path
                 d="m 128.19582,11.164385 c 0,0 -0.33104,-0.935111 -1.5208,-0.935111 -1.1927,0 -1.52843,0.935111 -1.52843,0.935111 l -5.83729,11.723852 c 2.18876,0 2.52215,-1.206519 2.52215,-1.206519 l 1.03716,-2.058074 h 4.51604 c 0.93033,0 1.26196,-1.672888 1.26196,-1.672888 h -4.93983 l 2.96824,-5.912297 4.84415,9.643259 c 0,0 0.32928,1.206519 2.5157,1.206519 z"
                 id="Fill-30"
                 fill="#fefefe"
                 style="fill:#ffffff;fill-opacity:1" />
              <path
                 d="m 102.97788,11.703704 v 8.905481 l -6.904367,-9.174518 c 0,0 -0.794152,-1.205334 -1.656391,-1.205334 -1.192696,0 -1.391087,1.605926 -1.391087,1.605926 v 11.186963 c 1.725065,0 1.791391,-1.340444 1.791391,-1.340444 v -9.040593 c 0,0 5.701114,7.770074 6.630844,9.108148 0.92857,1.33926 1.66109,1.272889 1.66109,1.272889 1.39578,0 1.59124,-1.340444 1.59124,-1.340444 V 10.160593 c -1.52785,0 -1.72272,1.543111 -1.72272,1.543111"
                 id="Fill-32"
                 fill="#fefefe"
                 style="fill:#ffffff;fill-opacity:1" />
              <path
                 d="m 133.16371,11.595496 h 0.4361 c 0.0927,0 0.16494,-0.01067 0.21835,-0.03022 0.0522,-0.02015 0.0916,-0.05156 0.11974,-0.09541 0.0276,-0.04326 0.0405,-0.09067 0.0405,-0.142815 0,-0.07467 -0.0264,-0.136296 -0.0798,-0.184889 -0.0522,-0.04918 -0.13559,-0.07289 -0.24946,-0.07289 h -0.48541 z m -0.20485,0.887704 v -1.589333 h 0.68204 c 0.13618,0 0.24124,0.01304 0.31285,0.04326 0.0704,0.02785 0.12796,0.07882 0.1708,0.150518 0.0423,0.07348 0.0628,0.151704 0.0628,0.239408 0,0.112592 -0.0358,0.208592 -0.10565,0.28563 -0.0704,0.07763 -0.17903,0.126222 -0.32635,0.147555 0.0534,0.02667 0.0945,0.05333 0.12326,0.07941 0.0575,0.0557 0.11504,0.126223 0.16728,0.210963 l 0.26824,0.432593 h -0.2565 l -0.2025,-0.331259 c -0.0605,-0.09422 -0.10859,-0.167704 -0.14733,-0.21926 -0.0387,-0.05037 -0.0728,-0.08533 -0.10271,-0.106074 -0.0317,-0.01955 -0.0616,-0.03318 -0.0933,-0.04207 -0.0235,-0.0047 -0.061,-0.0071 -0.11328,-0.0071 h -0.23478 V 12.4832 Z m 0.55291,-2.126222 c -0.70258,0 -1.23202,0.59437 -1.23202,1.322074 0,0.73837 0.52944,1.323852 1.24963,1.323852 0.70317,0.0089 1.22439,-0.585482 1.22439,-1.323852 0,-0.727704 -0.52122,-1.322074 -1.23378,-1.322074 z m 0.0164,-0.161778 c 0.82174,0 1.4621,0.660148 1.4621,1.483852 0,0.842074 -0.64036,1.493333 -1.47091,1.493333 -0.82174,0 -1.47854,-0.651259 -1.47854,-1.493333 0,-0.823704 0.6568,-1.483852 1.47854,-1.483852 z"
                 id="Fill-34"
                 fill="#fefefe"
                 style="fill:#ffffff;fill-opacity:1" />
              <path
                 d="m 49.206326,11.287052 -4.8735,9.707852 -4.877022,-9.707852 c 0,0 -0.0405,-0.151111 -0.190761,-0.343704 L 38.761435,9.8950519 h -6.073826 c -1.200913,0 -1.400479,1.8838521 -1.400479,1.8838521 h 6.480587 l 5.028457,10.091259 c 0,0 0.332217,0.942222 1.536652,0.942222 1.203261,0 1.535478,-0.942222 1.535478,-0.942222 L 51.740217,10.07283 c -2.197565,0 -2.533891,1.214222 -2.533891,1.214222"
                 id="Fill-36"
                 fill="#fefefe"
                 style="fill:#ffffff;fill-opacity:1" />
            </g>
          </g>
        </g>
      </g>
    </g>
  </g>
  <metadata
     id="metadata449">
    <rdf:RDF>
      <cc:Work
         rdf:about="">
        <dc:title>Logo Vidanta Blanco</dc:title>
      </cc:Work>
    </rdf:RDF>
  </metadata>
</svg>
